<svg xmlns="http://www.w3.org/2000/svg" viewBox="0 0 900 560" width="100%">
<defs>
  <pattern id="g" width="30" height="30" patternUnits="userSpaceOnUse">
    <path d="M30 0L0 0 0 30" fill="none" stroke="#1e293b" stroke-width="0.4"/>
  </pattern>
  <filter id="s"><feDropShadow dx="0" dy="2" stdDeviation="3" flood-opacity="0.3"/></filter>
  <marker id="ar" markerWidth="8" markerHeight="6" refX="8" refY="3" orient="auto">
    <path d="M0 0L8 3L0 6z" fill="#64748b"/>
  </marker>
  <marker id="ar-amber" markerWidth="8" markerHeight="6" refX="8" refY="3" orient="auto">
    <path d="M0 0L8 3L0 6z" fill="#fbbf24"/>
  </marker>
  <marker id="ar-green" markerWidth="8" markerHeight="6" refX="8" refY="3" orient="auto">
    <path d="M0 0L8 3L0 6z" fill="#34d399"/>
  </marker>
  <marker id="ar-violet" markerWidth="8" markerHeight="6" refX="8" refY="3" orient="auto">
    <path d="M0 0L8 3L0 6z" fill="#a78bfa"/>
  </marker>
</defs>
<rect width="900" height="560" fill='#0f172a'/>
<rect width="900" height="560" fill="url(#g)"/>
<rect x="40" y="30" width="150" height="50" rx="4" fill="rgba(245,158,11,0.2)" stroke="#f59e0b" stroke-width="1.5" filter="url(#s)" class=""/><text x="115" y="50" fill="#f8fafc" font-size="12" font-weight="600" text-anchor="middle">220V AC Mains</text><rect x="220" y="30" width="130" height="50" rx="4" fill="rgba(245,158,11,0.2)" stroke="#f59e0b" stroke-width="1.5" filter="url(#s)" class=""/><text x="285" y="50" fill="#f8fafc" font-size="12" font-weight="600" text-anchor="middle">5V 2A Adapter</text><rect x="380" y="30" width="130" height="50" rx="4" fill="rgba(245,158,11,0.2)" stroke="#f59e0b" stroke-width="1.5" filter="url(#s)" class=""/><text x="445" y="50" fill="#f8fafc" font-size="12" font-weight="600" text-anchor="middle">12V 2A Adapter</text><text x="445" y="66" fill="#94a3b8" font-size="9" text-anchor="middle">For solenoid valves</text><line x1="190" y1="55" x2="218" y2="55" stroke="#64748b" stroke-width="1.5" marker-end="url(#ar)" /><text x="204" y="49" fill="#64748b" font-size="8" text-anchor="middle">AC→DC</text><line x1="350" y1="55" x2="378" y2="55" stroke="#64748b" stroke-width="1.5" marker-end="url(#ar)" /><rect x="370" y="130" width="200" height="80" rx="4" fill="rgba(6,78,59,0.5)" stroke="#34d399" stroke-width="1.5" filter="url(#s)" class=""/><text x="470" y="165" fill="#f8fafc" font-size="12" font-weight="600" text-anchor="middle">ESP32 38-Pin Dev Board</text><text x="470" y="181" fill="#94a3b8" font-size="9" text-anchor="middle">CP2102 · Xtensa LX6 · WiFi/BLE</text><line x1="285" y1="55" x2="470" y2="128" stroke="#64748b" stroke-width="1.5" marker-end="url(#ar-green)" /><text x="377" y="85" fill="#64748b" font-size="8" text-anchor="middle">5V VIN</text><line x1="445" y1="80" x2="445" y2="128" stroke="#64748b" stroke-width="1.5" marker-end="url(#ar)" /><text x="445" y="98" fill="#64748b" font-size="8" text-anchor="middle">12V → relay</text><rect x="40" y="130" width="130" height="55" rx="4" fill="rgba(6,78,59,0.5)" stroke="#34d399" stroke-width="1.5" filter="url(#s)" class=""/><text x="105" y="152" fill="#f8fafc" font-size="12" font-weight="600" text-anchor="middle">OLED 128×64</text><text x="105" y="168" fill="#94a3b8" font-size="9" text-anchor="middle">I²C · GPIO 21/22</text><rect x="40" y="200" width="130" height="55" rx="4" fill="rgba(6,78,59,0.5)" stroke="#34d399" stroke-width="1.5" filter="url(#s)" class=""/><text x="105" y="222" fill="#f8fafc" font-size="12" font-weight="600" text-anchor="middle">SD Card Module</text><text x="105" y="238" fill="#94a3b8" font-size="9" text-anchor="middle">SPI · GPIO 18/19/23</text><rect x="40" y="270" width="130" height="55" rx="4" fill="rgba(6,78,59,0.5)" stroke="#34d399" stroke-width="1.5" filter="url(#s)" class=""/><text x="105" y="292" fill="#f8fafc" font-size="12" font-weight="600" text-anchor="middle">Buzzer</text><text x="105" y="308" fill="#94a3b8" font-size="9" text-anchor="middle">GPIO 4</text><rect x="40" y="340" width="130" height="55" rx="4" fill="rgba(6,78,59,0.5)" stroke="#34d399" stroke-width="1.5" filter="url(#s)" class=""/><text x="105" y="362" fill="#f8fafc" font-size="12" font-weight="600" text-anchor="middle">RGB LED</text><text x="105" y="378" fill="#94a3b8" font-size="9" text-anchor="middle">GPIO 5</text><rect x="610" y="130" width="120" height="50" rx="4" fill="rgba(8,51,68,0.5)" stroke="#22d3ee" stroke-width="1.5" filter="url(#s)" class=""/><text x="670" y="150" fill="#f8fafc" font-size="12" font-weight="600" text-anchor="middle">Inlet YF-S201</text><text x="670" y="166" fill="#94a3b8" font-size="9" text-anchor="middle">GPIO 34</text><rect x="610" y="195" width="120" height="35" rx="4" fill="rgba(8,51,68,0.5)" stroke="#22d3ee" stroke-width="1.5" filter="url(#s)" class=""/><text x="670" y="207" fill="#f8fafc" font-size="12" font-weight="600" text-anchor="middle">Fixture 1 YF-S201</text><text x="670" y="223" fill="#94a3b8" font-size="9" text-anchor="middle">GPIO 35</text><rect x="610" y="235" width="120" height="35" rx="4" fill="rgba(8,51,68,0.5)" stroke="#22d3ee" stroke-width="1.5" filter="url(#s)" class=""/><text x="670" y="247" fill="#f8fafc" font-size="12" font-weight="600" text-anchor="middle">Fixture 2 YF-S201</text><text x="670" y="263" fill="#94a3b8" font-size="9" text-anchor="middle">GPIO 32</text><rect x="610" y="275" width="120" height="35" rx="4" fill="rgba(8,51,68,0.5)" stroke="#22d3ee" stroke-width="1.5" filter="url(#s)" class=""/><text x="670" y="287" fill="#f8fafc" font-size="12" font-weight="600" text-anchor="middle">Fixture 3 YF-S201</text><text x="670" y="303" fill="#94a3b8" font-size="9" text-anchor="middle">GPIO 33</text><rect x="610" y="315" width="120" height="35" rx="4" fill="rgba(8,51,68,0.5)" stroke="#22d3ee" stroke-width="1.5" filter="url(#s)" class=""/><text x="670" y="327" fill="#f8fafc" font-size="12" font-weight="600" text-anchor="middle">Fixture 4 YF-S201</text><text x="670" y="343" fill="#94a3b8" font-size="9" text-anchor="middle">GPIO 25</text><rect x="780" y="130" width="100" height="65" rx="4" fill="rgba(136,19,55,0.4)" stroke="#fb7185" stroke-width="1.5" filter="url(#s)" class=""/><text x="830" y="157" fill="#f8fafc" font-size="12" font-weight="600" text-anchor="middle">4-Ch Relay</text><text x="830" y="173" fill="#94a3b8" font-size="9" text-anchor="middle">Active LOW</text><rect x="780" y="210" width="100" height="65" rx="4" fill="rgba(239,68,68,0.15)" stroke="#f87171" stroke-width="1.5" filter="url(#s)" class=""/><text x="830" y="237" fill="#f8fafc" font-size="12" font-weight="600" text-anchor="middle">Solenoid</text><text x="830" y="253" fill="#94a3b8" font-size="9" text-anchor="middle">Valves ×4–5</text><rect x="780" y="290" width="100" height="45" rx="4" fill="rgba(8,51,68,0.5)" stroke="#22d3ee" stroke-width="1.5" filter="url(#s)" class=""/><text x="830" y="307" fill="#f8fafc" font-size="12" font-weight="600" text-anchor="middle">Check Valves</text><text x="830" y="323" fill="#94a3b8" font-size="9" text-anchor="middle">×4 (brass)</text><line x1="170" y1="157" x2="368" y2="157" stroke="#64748b" stroke-width="1.5" marker-end="url(#ar-green)" /><text x="269" y="151" fill="#64748b" font-size="8" text-anchor="middle">I²C</text><line x1="170" y1="227" x2="368" y2="180" stroke="#64748b" stroke-width="1.5" marker-end="url(#ar-green)" /><text x="269" y="197" fill="#64748b" font-size="8" text-anchor="middle">SPI</text><line x1="170" y1="297" x2="470" y2="190" stroke="#64748b" stroke-width="1.5" marker-end="url(#ar)" /><line x1="170" y1="367" x2="470" y2="200" stroke="#64748b" stroke-width="1.5" marker-end="url(#ar)" /><line x1="570" y1="155" x2="608" y2="155" stroke="#64748b" stroke-width="1.5" marker-end="url(#ar)" /><line x1="570" y1="195" x2="608" y2="195" stroke="#64748b" stroke-width="1.5" marker-end="url(#ar)" /><line x1="570" y1="235" x2="608" y2="235" stroke="#64748b" stroke-width="1.5" marker-end="url(#ar)" /><line x1="570" y1="275" x2="608" y2="275" stroke="#64748b" stroke-width="1.5" marker-end="url(#ar)" /><line x1="570" y1="315" x2="608" y2="315" stroke="#64748b" stroke-width="1.5" marker-end="url(#ar)" /><line x1="570" y1="162" x2="778" y2="162" stroke="#64748b" stroke-width="1.5" marker-end="url(#ar)" /><text x="674" y="156" fill="#64748b" font-size="8" text-anchor="middle">GPIO 26/27/14/12/13</text><line x1="830" y1="195" x2="830" y2="208" stroke="#64748b" stroke-width="1.5" marker-end="url(#ar)" /><line x1="830" y1="275" x2="830" y2="288" stroke="#64748b" stroke-width="1.5" marker-end="url(#ar)" /></svg>