<svg xmlns="http://www.w3.org/2000/svg" viewBox="0 0 650 350" width="100%">
<defs>
  <pattern id="g" width="30" height="30" patternUnits="userSpaceOnUse">
    <path d="M30 0L0 0 0 30" fill="none" stroke="#1e293b" stroke-width="0.4"/>
  </pattern>
  <filter id="s"><feDropShadow dx="0" dy="2" stdDeviation="3" flood-opacity="0.3"/></filter>
  <marker id="ar" markerWidth="8" markerHeight="6" refX="8" refY="3" orient="auto">
    <path d="M0 0L8 3L0 6z" fill="#64748b"/>
  </marker>
  <marker id="ar-amber" markerWidth="8" markerHeight="6" refX="8" refY="3" orient="auto">
    <path d="M0 0L8 3L0 6z" fill="#fbbf24"/>
  </marker>
  <marker id="ar-green" markerWidth="8" markerHeight="6" refX="8" refY="3" orient="auto">
    <path d="M0 0L8 3L0 6z" fill="#34d399"/>
  </marker>
  <marker id="ar-violet" markerWidth="8" markerHeight="6" refX="8" refY="3" orient="auto">
    <path d="M0 0L8 3L0 6z" fill="#a78bfa"/>
  </marker>
</defs>
<rect width="650" height="350" fill='#0f172a'/>
<rect width="650" height="350" fill="url(#g)"/>
<polygon points="160,28 230,50 160,72 90,50" fill="rgba(30,41,59,0.5)" stroke="#f59e0b" stroke-width="1.5" filter="url(#s)"/><text x="160" y="45" fill="#f8fafc" font-size="11" font-weight="600" text-anchor="middle">Inlet > sum
fixtures+10%?</text><line x1="160" y1="75" x2="160" y2="110" stroke="#64748b" stroke-width="1.5" marker-end="url(#ar)" stroke-dasharray="Yes"/><rect x="70" y="110" width="180" height="35" rx="4" fill="rgba(239,68,68,0.15)" stroke="#f87171" stroke-width="1.5" filter="url(#s)" class=""/><text x="160" y="122" fill="#f8fafc" font-size="12" font-weight="600" text-anchor="middle">🔴 Hidden Leak Suspected</text><line x1="160" y1="145" x2="160" y2="180" stroke="#64748b" stroke-width="1.5" marker-end="url(#ar)" /><polygon points="410,28 480,50 410,72 340,50" fill="rgba(30,41,59,0.5)" stroke="#f59e0b" stroke-width="1.5" filter="url(#s)"/><text x="410" y="45" fill="#f8fafc" font-size="11" font-weight="600" text-anchor="middle">Flow > 0
for >30 min?</text><line x1="410" y1="75" x2="410" y2="110" stroke="#64748b" stroke-width="1.5" marker-end="url(#ar)" stroke-dasharray="Yes"/><rect x="340" y="110" width="140" height="35" rx="4" fill="rgba(239,68,68,0.15)" stroke="#f87171" stroke-width="1.5" filter="url(#s)" class=""/><text x="410" y="122" fill="#f8fafc" font-size="12" font-weight="600" text-anchor="middle">Stuck Valve / Running</text><polygon points="280,178 350,200 280,222 210,200" fill="rgba(30,41,59,0.5)" stroke="#f59e0b" stroke-width="1.5" filter="url(#s)"/><text x="280" y="195" fill="#f8fafc" font-size="11" font-weight="600" text-anchor="middle">Flow 0.1-0.5
>5 min?</text><rect x="280" y="270" width="180" height="35" rx="4" fill="rgba(136,19,55,0.4)" stroke="#fb7185" stroke-width="1.5" filter="url(#s)" class=""/><text x="370" y="282" fill="#f8fafc" font-size="12" font-weight="600" text-anchor="middle">Send Firebase Alert</text><line x1="160" y1="180" x2="280" y2="222" stroke="#64748b" stroke-width="1.5" marker-end="url(#ar)" /><line x1="410" y1="145" x2="370" y2="222" stroke="#64748b" stroke-width="1.5" marker-end="url(#ar)" /><line x1="350" y1="222" x2="370" y2="268" stroke="#64748b" stroke-width="1.5" marker-end="url(#ar)" /></svg>