<svg xmlns="http://www.w3.org/2000/svg" viewBox="0 0 700 820" width="100%">
<defs>
  <pattern id="g" width="30" height="30" patternUnits="userSpaceOnUse">
    <path d="M30 0L0 0 0 30" fill="none" stroke="#1e293b" stroke-width="0.4"/>
  </pattern>
  <filter id="s"><feDropShadow dx="0" dy="2" stdDeviation="3" flood-opacity="0.3"/></filter>
  <marker id="ar" markerWidth="8" markerHeight="6" refX="8" refY="3" orient="auto">
    <path d="M0 0L8 3L0 6z" fill="#64748b"/>
  </marker>
  <marker id="ar-amber" markerWidth="8" markerHeight="6" refX="8" refY="3" orient="auto">
    <path d="M0 0L8 3L0 6z" fill="#fbbf24"/>
  </marker>
  <marker id="ar-green" markerWidth="8" markerHeight="6" refX="8" refY="3" orient="auto">
    <path d="M0 0L8 3L0 6z" fill="#34d399"/>
  </marker>
  <marker id="ar-violet" markerWidth="8" markerHeight="6" refX="8" refY="3" orient="auto">
    <path d="M0 0L8 3L0 6z" fill="#a78bfa"/>
  </marker>
</defs>
<rect width="700" height="820" fill='#0f172a'/>
<rect width="700" height="820" fill="url(#g)"/>
<rect x="67" y="30" width="86" height="35" rx="0" fill="rgba(30,41,59,0.5)" stroke="#8b5cf6" stroke-width="1.5" filter="url(#s)"/><circle cx="67" cy="47" r="17" fill="rgba(30,41,59,0.5)" stroke="#8b5cf6" stroke-width="1.5" filter="url(#s)"/><circle cx="153" cy="47" r="17" fill="rgba(30,41,59,0.5)" stroke="#8b5cf6" stroke-width="1.5" filter="url(#s)"/><text x="110" y="51" fill="#f8fafc" font-size="11" font-weight="600" text-anchor="middle">Power On</text><line x1="110" y1="65" x2="110" y2="85" stroke="#64748b" stroke-width="1.5" marker-end="url(#ar)" /><rect x="50" y="85" width="120" height="35" rx="4" fill="rgba(6,78,59,0.5)" stroke="#34d399" stroke-width="1.5" filter="url(#s)" class=""/><text x="110" y="97" fill="#f8fafc" font-size="12" font-weight="600" text-anchor="middle">ESP32 Init</text><line x1="110" y1="120" x2="110" y2="145" stroke="#64748b" stroke-width="1.5" marker-end="url(#ar)" /><rect x="50" y="145" width="120" height="35" rx="4" fill="rgba(6,78,59,0.5)" stroke="#34d399" stroke-width="1.5" filter="url(#s)" class=""/><text x="110" y="157" fill="#f8fafc" font-size="12" font-weight="600" text-anchor="middle">Init Sensors + ISRs</text><line x1="110" y1="180" x2="110" y2="210" stroke="#64748b" stroke-width="1.5" marker-end="url(#ar)" /><rect x="50" y="210" width="120" height="35" rx="4" fill="rgba(6,78,59,0.5)" stroke="#34d399" stroke-width="1.5" filter="url(#s)" class=""/><text x="110" y="222" fill="#f8fafc" font-size="12" font-weight="600" text-anchor="middle">Connect WiFi</text><line x1="110" y1="245" x2="110" y2="265" stroke="#64748b" stroke-width="1.5" marker-end="url(#ar)" /><polygon points="170,288 230,310 170,332 110,310" fill="rgba(30,41,59,0.5)" stroke="#f59e0b" stroke-width="1.5" filter="url(#s)"/><text x="170" y="305" fill="#f8fafc" font-size="11" font-weight="600" text-anchor="middle">WiFi OK?</text><line x1="110" y1="282" x2="110" y2="310" stroke="#64748b" stroke-width="1.5" marker-end="url(#ar)" /><line x1="230" y1="310" x2="280" y2="310" stroke="#64748b" stroke-width="1.5" marker-end="url(#ar)" stroke-dasharray="Yes"/><rect x="280" y="290" width="130" height="40" rx="4" fill="rgba(120,53,15,0.4)" stroke="#fbbf24" stroke-width="1.5" filter="url(#s)" class=""/><text x="345" y="305" fill="#f8fafc" font-size="12" font-weight="600" text-anchor="middle">Init Firebase Client</text><line x1="345" y1="330" x2="345" y2="355" stroke="#64748b" stroke-width="1.5" marker-end="url(#ar)" /><rect x="280" y="355" width="130" height="40" rx="4" fill="rgba(120,53,15,0.4)" stroke="#fbbf24" stroke-width="1.5" filter="url(#s)" class=""/><text x="345" y="370" fill="#f8fafc" font-size="12" font-weight="600" text-anchor="middle">Start SSE Stream</text><line x1="170" y1="355" x2="170" y2="400" stroke="#64748b" stroke-width="1.5" marker-end="url(#ar)" stroke-dasharray="No"/><rect x="100" y="400" width="140" height="40" rx="4" fill="rgba(136,19,55,0.4)" stroke="#fb7185" stroke-width="1.5" filter="url(#s)" class=""/><text x="170" y="415" fill="#f8fafc" font-size="12" font-weight="600" text-anchor="middle">Offline: SD Card</text><rect x="320" y="445" width="130" height="40" rx="4" fill="rgba(30,41,59,0.6)" stroke="#475569" stroke-width="1.5" filter="url(#s)" class=""/><text x="385" y="460" fill="#f8fafc" font-size="12" font-weight="600" text-anchor="middle">Main Loop</text><line x1="170" y1="440" x2="170" y2="465" stroke="#64748b" stroke-width="1.5" marker-end="url(#ar)" /><line x1="410" y1="395" x2="410" y2="465" stroke="#64748b" stroke-width="1.5" marker-end="url(#ar)" /><line x1="320" y1="465" x2="385" y2="465" stroke="#64748b" stroke-width="1.5" marker-end="url(#ar)" /><rect x="320" y="510" width="130" height="40" rx="4" fill="rgba(6,78,59,0.5)" stroke="#34d399" stroke-width="1.5" filter="url(#s)" class=""/><text x="385" y="525" fill="#f8fafc" font-size="12" font-weight="600" text-anchor="middle">Read Pulse Counters</text><line x1="385" y1="465" x2="385" y2="508" stroke="#64748b" stroke-width="1.5" marker-end="url(#ar)" /><rect x="320" y="570" width="130" height="40" rx="4" fill="rgba(6,78,59,0.5)" stroke="#34d399" stroke-width="1.5" filter="url(#s)" class=""/><text x="385" y="585" fill="#f8fafc" font-size="12" font-weight="600" text-anchor="middle">Calc Flow Metrics</text><line x1="385" y1="550" x2="385" y2="568" stroke="#64748b" stroke-width="1.5" marker-end="url(#ar)" /><rect x="320" y="630" width="130" height="40" rx="4" fill="rgba(6,78,59,0.5)" stroke="#34d399" stroke-width="1.5" filter="url(#s)" class=""/><text x="385" y="645" fill="#f8fafc" font-size="12" font-weight="600" text-anchor="middle">Update OLED Display</text><line x1="385" y1="610" x2="385" y2="628" stroke="#64748b" stroke-width="1.5" marker-end="url(#ar)" /><rect x="320" y="690" width="130" height="40" rx="4" fill="rgba(239,68,68,0.15)" stroke="#f87171" stroke-width="1.5" filter="url(#s)" class=""/><text x="385" y="705" fill="#f8fafc" font-size="12" font-weight="600" text-anchor="middle">Local Leak Rules</text><line x1="385" y1="670" x2="385" y2="688" stroke="#64748b" stroke-width="1.5" marker-end="url(#ar)" /><polygon points="520,670 585,695 520,720 455,695" fill="rgba(30,41,59,0.5)" stroke="#f59e0b" stroke-width="1.5" filter="url(#s)"/><text x="520" y="690" fill="#f8fafc" font-size="11" font-weight="600" text-anchor="middle">Upload
Due?</text><line x1="450" y1="710" x2="455" y2="710" stroke="#64748b" stroke-width="1.5" marker-end="url(#ar)" /><line x1="585" y1="695" x2="630" y2="695" stroke="#64748b" stroke-width="1.5" marker-end="url(#ar)" stroke-dasharray="Yes"/><rect x="630" y="675" width="130" height="40" rx="4" fill="rgba(120,53,15,0.4)" stroke="#fbbf24" stroke-width="1.5" filter="url(#s)" class=""/><text x="695" y="690" fill="#f8fafc" font-size="12" font-weight="600" text-anchor="middle">Push to Firebase</text><line x1="695" y1="715" x2="695" y2="740" stroke="#64748b" stroke-width="1.5" marker-end="url(#ar)" /><polygon points="630,735 695,760 630,785 565,760" fill="rgba(30,41,59,0.5)" stroke="#f59e0b" stroke-width="1.5" filter="url(#s)"/><text x="630" y="755" fill="#f8fafc" font-size="11" font-weight="600" text-anchor="middle">Success?</text><line x1="695" y1="755" x2="730" y2="755" stroke="#64748b" stroke-width="1.5" marker-end="url(#ar)" stroke-dasharray="Yes"/><rect x="730" y="735" width="130" height="40" rx="4" fill="rgba(6,78,59,0.5)" stroke="#34d399" stroke-width="1.5" filter="url(#s)" class=""/><text x="795" y="750" fill="#f8fafc" font-size="12" font-weight="600" text-anchor="middle">Clear Buffer</text><line x1="585" y1="760" x2="585" y2="785" stroke="#64748b" stroke-width="1.5" marker-end="url(#ar)" stroke-dasharray="No"/><rect x="500" y="770" width="130" height="40" rx="4" fill="rgba(136,19,55,0.4)" stroke="#fb7185" stroke-width="1.5" filter="url(#s)" class=""/><text x="565" y="785" fill="#f8fafc" font-size="12" font-weight="600" text-anchor="middle">Save to SD Queue</text></svg>