<svg xmlns="http://www.w3.org/2000/svg" viewBox="0 0 500 300" width="100%">
<defs>
  <pattern id="g" width="30" height="30" patternUnits="userSpaceOnUse">
    <path d="M30 0L0 0 0 30" fill="none" stroke="#1e293b" stroke-width="0.4"/>
  </pattern>
  <filter id="s"><feDropShadow dx="0" dy="2" stdDeviation="3" flood-opacity="0.3"/></filter>
  <marker id="ar" markerWidth="8" markerHeight="6" refX="8" refY="3" orient="auto">
    <path d="M0 0L8 3L0 6z" fill="#64748b"/>
  </marker>
  <marker id="ar-amber" markerWidth="8" markerHeight="6" refX="8" refY="3" orient="auto">
    <path d="M0 0L8 3L0 6z" fill="#fbbf24"/>
  </marker>
  <marker id="ar-green" markerWidth="8" markerHeight="6" refX="8" refY="3" orient="auto">
    <path d="M0 0L8 3L0 6z" fill="#34d399"/>
  </marker>
  <marker id="ar-violet" markerWidth="8" markerHeight="6" refX="8" refY="3" orient="auto">
    <path d="M0 0L8 3L0 6z" fill="#a78bfa"/>
  </marker>
</defs>
<rect width="500" height="300" fill='#0f172a'/>
<rect width="500" height="300" fill="url(#g)"/>
<rect x="47" y="30" width="86" height="35" rx="0" fill="rgba(30,41,59,0.5)" stroke="#8b5cf6" stroke-width="1.5" filter="url(#s)"/><circle cx="47" cy="47" r="17" fill="rgba(30,41,59,0.5)" stroke="#8b5cf6" stroke-width="1.5" filter="url(#s)"/><circle cx="133" cy="47" r="17" fill="rgba(30,41,59,0.5)" stroke="#8b5cf6" stroke-width="1.5" filter="url(#s)"/><text x="90" y="51" fill="#f8fafc" font-size="11" font-weight="600" text-anchor="middle">Pulse from Sensor</text><line x1="90" y1="65" x2="90" y2="85" stroke="#64748b" stroke-width="1.5" marker-end="url(#ar)" /><rect x="30" y="85" width="120" height="35" rx="4" fill="rgba(6,78,59,0.5)" stroke="#34d399" stroke-width="1.5" filter="url(#s)" class=""/><text x="90" y="97" fill="#f8fafc" font-size="12" font-weight="600" text-anchor="middle">ISR Triggered</text><line x1="90" y1="120" x2="90" y2="145" stroke="#64748b" stroke-width="1.5" marker-end="url(#ar)" /><rect x="30" y="145" width="120" height="35" rx="4" fill="rgba(6,78,59,0.5)" stroke="#34d399" stroke-width="1.5" filter="url(#s)" class=""/><text x="90" y="157" fill="#f8fafc" font-size="12" font-weight="600" text-anchor="middle">Read millis()</text><line x1="90" y1="180" x2="90" y2="205" stroke="#64748b" stroke-width="1.5" marker-end="url(#ar)" /><polygon points="260,190 330,215 260,240 190,215" fill="rgba(30,41,59,0.5)" stroke="#f59e0b" stroke-width="1.5" filter="url(#s)"/><text x="260" y="210" fill="#f8fafc" font-size="11" font-weight="600" text-anchor="middle">Debounce
> 5ms?</text><line x1="150" y1="215" x2="190" y2="215" stroke="#64748b" stroke-width="1.5" marker-end="url(#ar)" /><line x1="330" y1="215" x2="370" y2="215" stroke="#64748b" stroke-width="1.5" marker-end="url(#ar)" stroke-dasharray="Yes"/><rect x="370" y="195" width="120" height="35" rx="4" fill="rgba(6,78,59,0.5)" stroke="#34d399" stroke-width="1.5" filter="url(#s)" class=""/><text x="430" y="207" fill="#f8fafc" font-size="12" font-weight="600" text-anchor="middle">Inc pulseCount</text><line x1="430" y1="230" x2="430" y2="255" stroke="#64748b" stroke-width="1.5" marker-end="url(#ar)" /><rect x="370" y="255" width="120" height="35" rx="4" fill="rgba(6,78,59,0.5)" stroke="#34d399" stroke-width="1.5" filter="url(#s)" class=""/><text x="430" y="267" fill="#f8fafc" font-size="12" font-weight="600" text-anchor="middle">Update lastPulseTime</text><line x1="260" y1="240" x2="260" y2="265" stroke="#64748b" stroke-width="1.5" marker-end="url(#ar)" stroke-dasharray="No"/><rect x="190" y="260" width="140" height="30" rx="4" fill="rgba(136,19,55,0.4)" stroke="#fb7185" stroke-width="1.5" filter="url(#s)" class=""/><text x="260" y="270" fill="#f8fafc" font-size="12" font-weight="600" text-anchor="middle">Ignore (bounce)</text></svg>