<svg xmlns="http://www.w3.org/2000/svg" viewBox="0 0 800 550" width="100%">
<defs>
  <pattern id="g" width="30" height="30" patternUnits="userSpaceOnUse">
    <path d="M30 0L0 0 0 30" fill="none" stroke="#1e293b" stroke-width="0.4"/>
  </pattern>
  <filter id="s"><feDropShadow dx="0" dy="2" stdDeviation="3" flood-opacity="0.3"/></filter>
  <marker id="ar" markerWidth="8" markerHeight="6" refX="8" refY="3" orient="auto">
    <path d="M0 0L8 3L0 6z" fill="#64748b"/>
  </marker>
  <marker id="ar-amber" markerWidth="8" markerHeight="6" refX="8" refY="3" orient="auto">
    <path d="M0 0L8 3L0 6z" fill="#fbbf24"/>
  </marker>
  <marker id="ar-green" markerWidth="8" markerHeight="6" refX="8" refY="3" orient="auto">
    <path d="M0 0L8 3L0 6z" fill="#34d399"/>
  </marker>
  <marker id="ar-violet" markerWidth="8" markerHeight="6" refX="8" refY="3" orient="auto">
    <path d="M0 0L8 3L0 6z" fill="#a78bfa"/>
  </marker>
</defs>
<rect width="800" height="550" fill='#0f172a'/>
<rect width="800" height="550" fill="url(#g)"/>
<rect x="20" y="15" width="760" height="110" rx="10" fill="rgba(15,23,42,0.4)" stroke="#34d399" stroke-width="1" stroke-dasharray="5,3"/><text x="34" y="35" fill="#34d399" font-size="11" font-weight="700">⚡ ESP32 (Firebase-ESP-Client)</text><rect x="40" y="40" width="130" height="40" rx="4" fill="rgba(6,78,59,0.5)" stroke="#34d399" stroke-width="1.5" filter="url(#s)" class=""/><text x="105" y="55" fill="#f8fafc" font-size="12" font-weight="600" text-anchor="middle">Read Sensors</text><line x1="170" y1="60" x2="195" y2="60" stroke="#64748b" stroke-width="1.5" marker-end="url(#ar)" /><rect x="200" y="40" width="130" height="40" rx="4" fill="rgba(6,78,59,0.5)" stroke="#34d399" stroke-width="1.5" filter="url(#s)" class=""/><text x="265" y="55" fill="#f8fafc" font-size="12" font-weight="600" text-anchor="middle">Build JSON Payload</text><line x1="330" y1="60" x2="355" y2="60" stroke="#64748b" stroke-width="1.5" marker-end="url(#ar)" /><rect x="360" y="40" width="140" height="40" rx="4" fill="rgba(120,53,15,0.4)" stroke="#fbbf24" stroke-width="1.5" filter="url(#s)" class=""/><text x="430" y="55" fill="#f8fafc" font-size="12" font-weight="600" text-anchor="middle">FIREBASE.pushJSON</text><line x1="500" y1="60" x2="525" y2="60" stroke="#64748b" stroke-width="1.5" marker-end="url(#ar)" /><rect x="20" y="140" width="760" height="130" rx="10" fill="rgba(15,23,42,0.4)" stroke="#fbbf24" stroke-width="1" stroke-dasharray="5,3"/><text x="34" y="160" fill="#fbbf24" font-size="11" font-weight="700">☁️ Firebase Realtime DB</text>
    <path d="M40 185 L40 215 A55 10 0 0 0 150 215 L150 185 A55 10 0 0 1 40 185 Z" fill="rgba(30,41,59,0.5)" stroke="#f59e0b" stroke-width="1.5" filter="url(#s)"/>
    <ellipse cx="95" cy="185" rx="55" ry="10" fill="rgba(30,41,59,0.5)" stroke="#f59e0b" stroke-width="1.5"/>
    <text x="95" y="195" fill="#f8fafc" font-size="11" font-weight="600" text-anchor="middle">/readings/</text><text x="95" y="211" fill="#94a3b8" font-size="8" text-anchor="middle">{id}/{ts}</text>
    <path d="M170 185 L170 215 A55 10 0 0 0 280 215 L280 185 A55 10 0 0 1 170 185 Z" fill="rgba(30,41,59,0.5)" stroke="#f59e0b" stroke-width="1.5" filter="url(#s)"/>
    <ellipse cx="225" cy="185" rx="55" ry="10" fill="rgba(30,41,59,0.5)" stroke="#f59e0b" stroke-width="1.5"/>
    <text x="225" y="195" fill="#f8fafc" font-size="11" font-weight="600" text-anchor="middle">/alerts/</text><text x="225" y="211" fill="#94a3b8" font-size="8" text-anchor="middle">{alert_id}</text>
    <path d="M300 185 L300 215 A55 10 0 0 0 410 215 L410 185 A55 10 0 0 1 300 185 Z" fill="rgba(30,41,59,0.5)" stroke="#f59e0b" stroke-width="1.5" filter="url(#s)"/>
    <ellipse cx="355" cy="185" rx="55" ry="10" fill="rgba(30,41,59,0.5)" stroke="#f59e0b" stroke-width="1.5"/>
    <text x="355" y="195" fill="#f8fafc" font-size="11" font-weight="600" text-anchor="middle">/commands/</text><text x="355" y="211" fill="#94a3b8" font-size="8" text-anchor="middle">{id}</text>
    <path d="M430 185 L430 215 A55 10 0 0 0 540 215 L540 185 A55 10 0 0 1 430 185 Z" fill="rgba(30,41,59,0.5)" stroke="#f59e0b" stroke-width="1.5" filter="url(#s)"/>
    <ellipse cx="485" cy="185" rx="55" ry="10" fill="rgba(30,41,59,0.5)" stroke="#f59e0b" stroke-width="1.5"/>
    <text x="485" y="195" fill="#f8fafc" font-size="11" font-weight="600" text-anchor="middle">/models/</text><text x="485" y="211" fill="#94a3b8" font-size="8" text-anchor="middle">{version}</text><line x1="500" y1="80" x2="500" y2="120" stroke="#64748b" stroke-width="1.5" marker-end="url(#ar-amber)" /><line x1="500" y1="120" x2="95" y2="120" stroke="#64748b" stroke-width="1.5" marker-end="url(#ar-amber)" /><line x1="95" y1="120" x2="95" y2="173" stroke="#64748b" stroke-width="1.5" marker-end="url(#ar-amber)" /><line x1="355" y1="175" x2="355" y2="130" stroke="#64748b" stroke-width="1.5" marker-end="url(#ar-amber)" /><line x1="355" y1="130" x2="430" y2="130" stroke="#64748b" stroke-width="1.5" marker-end="url(#ar-amber)" /><line x1="430" y1="130" x2="430" y2="80" stroke="#64748b" stroke-width="1.5" marker-end="url(#ar-amber)" /><text x="430" y="99" fill="#64748b" font-size="8" text-anchor="middle">SSE Stream (commands)</text><rect x="20" y="285" width="760" height="130" rx="10" fill="rgba(15,23,42,0.4)" stroke="#a78bfa" stroke-width="1" stroke-dasharray="5,3"/><text x="34" y="305" fill="#a78bfa" font-size="11" font-weight="700">🐍 PythonAnywhere (Pyrebase4)</text><rect x="40" y="315" width="120" height="40" rx="4" fill="rgba(76,29,149,0.4)" stroke="#a78bfa" stroke-width="1.5" filter="url(#s)" class=""/><text x="100" y="330" fill="#f8fafc" font-size="12" font-weight="600" text-anchor="middle">Pyrebase4 Listener</text><line x1="160" y1="335" x2="185" y2="335" stroke="#64748b" stroke-width="1.5" marker-end="url(#ar-violet)" /><rect x="190" y="315" width="120" height="40" rx="4" fill="rgba(76,29,149,0.4)" stroke="#a78bfa" stroke-width="1.5" filter="url(#s)" class=""/><text x="250" y="330" fill="#f8fafc" font-size="12" font-weight="600" text-anchor="middle">Extract Features</text><line x1="310" y1="335" x2="335" y2="335" stroke="#64748b" stroke-width="1.5" marker-end="url(#ar-violet)" /><rect x="340" y="315" width="120" height="40" rx="4" fill="rgba(76,29,149,0.4)" stroke="#a78bfa" stroke-width="1.5" filter="url(#s)" class=""/><text x="400" y="330" fill="#f8fafc" font-size="12" font-weight="600" text-anchor="middle">XGBoost Inference</text><line x1="460" y1="335" x2="485" y2="335" stroke="#64748b" stroke-width="1.5" marker-end="url(#ar-violet)" /><rect x="490" y="315" width="120" height="40" rx="4" fill="rgba(76,29,149,0.4)" stroke="#a78bfa" stroke-width="1.5" filter="url(#s)" class=""/><text x="550" y="330" fill="#f8fafc" font-size="12" font-weight="600" text-anchor="middle">Isolation Forest</text><line x1="610" y1="335" x2="620" y2="335" stroke="#64748b" stroke-width="1.5" marker-end="url(#ar-violet)" /><polygon points="640,345 685,365 640,385 595,365" fill="rgba(30,41,59,0.5)" stroke="#f59e0b" stroke-width="1.5" filter="url(#s)"/><text x="640" y="360" fill="#f8fafc" font-size="11" font-weight="600" text-anchor="middle">Leak?</text><line x1="650" y1="335" x2="650" y2="345" stroke="#64748b" stroke-width="1.5" marker-end="url(#ar-violet)" /><line x1="95" y1="225" x2="95" y2="260" stroke="#64748b" stroke-width="1.5" marker-end="url(#ar-violet)" /><line x1="95" y1="260" x2="100" y2="260" stroke="#64748b" stroke-width="1.5" marker-end="url(#ar-violet)" /><line x1="100" y1="260" x2="100" y2="313" stroke="#64748b" stroke-width="1.5" marker-end="url(#ar-violet)" /><text x="100" y="280" fill="#64748b" font-size="8" text-anchor="middle">SSE Stream</text><line x1="685" y1="365" x2="720" y2="365" stroke="#64748b" stroke-width="1.5" marker-end="url(#ar)" stroke-dasharray="Yes"/><rect x="720" y="345" width="130" height="40" rx="4" fill="rgba(136,19,55,0.4)" stroke="#fb7185" stroke-width="1.5" filter="url(#s)" class=""/><text x="785" y="360" fill="#f8fafc" font-size="12" font-weight="600" text-anchor="middle">Write Alert</text><line x1="785" y1="385" x2="785" y2="420" stroke="#64748b" stroke-width="1.5" marker-end="url(#ar)" /><rect x="720" y="420" width="130" height="40" rx="4" fill="rgba(136,19,55,0.4)" stroke="#fb7185" stroke-width="1.5" filter="url(#s)" class=""/><text x="785" y="435" fill="#f8fafc" font-size="12" font-weight="600" text-anchor="middle">Send Notification</text><line x1="785" y1="460" x2="785" y2="490" stroke="#64748b" stroke-width="1.5" marker-end="url(#ar)" /><rect x="20" y="430" width="760" height="100" rx="10" fill="rgba(15,23,42,0.4)" stroke="#22d3ee" stroke-width="1" stroke-dasharray="5,3"/><text x="34" y="450" fill="#22d3ee" font-size="11" font-weight="700">👤 User</text><rect x="40" y="460" width="130" height="40" rx="4" fill="rgba(8,51,68,0.5)" stroke="#22d3ee" stroke-width="1.5" filter="url(#s)" class=""/><text x="105" y="475" fill="#f8fafc" font-size="12" font-weight="600" text-anchor="middle">Web Dashboard</text><rect x="200" y="460" width="130" height="40" rx="4" fill="rgba(8,51,68,0.5)" stroke="#22d3ee" stroke-width="1.5" filter="url(#s)" class=""/><text x="265" y="475" fill="#f8fafc" font-size="12" font-weight="600" text-anchor="middle">Telegram Alert</text><rect x="360" y="460" width="130" height="40" rx="4" fill="rgba(8,51,68,0.5)" stroke="#22d3ee" stroke-width="1.5" filter="url(#s)" class=""/><text x="425" y="475" fill="#f8fafc" font-size="12" font-weight="600" text-anchor="middle">Send Command</text><line x1="785" y1="460" x2="265" y2="460" stroke="#64748b" stroke-width="1.5" marker-end="url(#ar)" /></svg>