<svg xmlns="http://www.w3.org/2000/svg" viewBox="0 0 700 420" width="100%">
<defs>
  <pattern id="g" width="30" height="30" patternUnits="userSpaceOnUse">
    <path d="M30 0L0 0 0 30" fill="none" stroke="#1e293b" stroke-width="0.4"/>
  </pattern>
  <filter id="s"><feDropShadow dx="0" dy="2" stdDeviation="3" flood-opacity="0.3"/></filter>
  <marker id="ar" markerWidth="8" markerHeight="6" refX="8" refY="3" orient="auto">
    <path d="M0 0L8 3L0 6z" fill="#64748b"/>
  </marker>
  <marker id="ar-amber" markerWidth="8" markerHeight="6" refX="8" refY="3" orient="auto">
    <path d="M0 0L8 3L0 6z" fill="#fbbf24"/>
  </marker>
  <marker id="ar-green" markerWidth="8" markerHeight="6" refX="8" refY="3" orient="auto">
    <path d="M0 0L8 3L0 6z" fill="#34d399"/>
  </marker>
  <marker id="ar-violet" markerWidth="8" markerHeight="6" refX="8" refY="3" orient="auto">
    <path d="M0 0L8 3L0 6z" fill="#a78bfa"/>
  </marker>
</defs>
<rect width="700" height="420" fill='#0f172a'/>
<rect width="700" height="420" fill="url(#g)"/>
<rect x="30" y="30" width="180" height="40" rx="4" fill="rgba(120,53,15,0.4)" stroke="#fbbf24" stroke-width="1.5" filter="url(#s)" class=""/><text x="120" y="45" fill="#f8fafc" font-size="12" font-weight="600" text-anchor="middle">SSE: /commands/{id}</text><line x1="210" y1="50" x2="240" y2="50" stroke="#64748b" stroke-width="1.5" marker-end="url(#ar)" /><polygon points="320,30 380,50 320,70 260,50" fill="rgba(30,41,59,0.5)" stroke="#f59e0b" stroke-width="1.5" filter="url(#s)"/><text x="320" y="45" fill="#f8fafc" font-size="11" font-weight="600" text-anchor="middle">Command Type?</text><rect x="40" y="140" width="110" height="35" rx="4" fill="rgba(6,78,59,0.5)" stroke="#34d399" stroke-width="1.5" filter="url(#s)" class=""/><text x="95" y="152" fill="#f8fafc" font-size="12" font-weight="600" text-anchor="middle">Relay 1 LOW</text><line x1="380" y1="50" x2="380" y2="75" stroke="#64748b" stroke-width="1.5" marker-end="url(#ar)" /><text x="200" y="162" fill="#64748b" font-size="9" text-anchor="end">close_inlet</text><rect x="40" y="190" width="110" height="35" rx="4" fill="rgba(6,78,59,0.5)" stroke="#34d399" stroke-width="1.5" filter="url(#s)" class=""/><text x="95" y="202" fill="#f8fafc" font-size="12" font-weight="600" text-anchor="middle">Relay 2 LOW</text><line x1="380" y1="50" x2="380" y2="75" stroke="#64748b" stroke-width="1.5" marker-end="url(#ar)" /><text x="200" y="212" fill="#64748b" font-size="9" text-anchor="end">close_fix1</text><rect x="40" y="240" width="110" height="35" rx="4" fill="rgba(6,78,59,0.5)" stroke="#34d399" stroke-width="1.5" filter="url(#s)" class=""/><text x="95" y="252" fill="#f8fafc" font-size="12" font-weight="600" text-anchor="middle">Relay 3 LOW</text><line x1="380" y1="58" x2="380" y2="75" stroke="#64748b" stroke-width="1.5" marker-end="url(#ar)" /><text x="200" y="262" fill="#64748b" font-size="9" text-anchor="end">close_fix2</text><rect x="40" y="290" width="110" height="35" rx="4" fill="rgba(6,78,59,0.5)" stroke="#34d399" stroke-width="1.5" filter="url(#s)" class=""/><text x="95" y="302" fill="#f8fafc" font-size="12" font-weight="600" text-anchor="middle">Relay 4 LOW</text><line x1="380" y1="58" x2="380" y2="75" stroke="#64748b" stroke-width="1.5" marker-end="url(#ar)" /><text x="200" y="312" fill="#64748b" font-size="9" text-anchor="end">close_fix3</text><rect x="40" y="340" width="110" height="35" rx="4" fill="rgba(6,78,59,0.5)" stroke="#34d399" stroke-width="1.5" filter="url(#s)" class=""/><text x="95" y="352" fill="#f8fafc" font-size="12" font-weight="600" text-anchor="middle">Relay 5 LOW</text><line x1="380" y1="66" x2="380" y2="75" stroke="#64748b" stroke-width="1.5" marker-end="url(#ar)" /><text x="200" y="362" fill="#64748b" font-size="9" text-anchor="end">close_fix4</text><rect x="300" y="140" width="110" height="35" rx="4" fill="rgba(6,78,59,0.5)" stroke="#34d399" stroke-width="1.5" filter="url(#s)" class=""/><text x="355" y="152" fill="#f8fafc" font-size="12" font-weight="600" text-anchor="middle">All relays LOW</text><line x1="380" y1="66" x2="380" y2="75" stroke="#64748b" stroke-width="1.5" marker-end="url(#ar)" /><text x="200" y="162" fill="#64748b" font-size="9" text-anchor="end">close_all</text><rect x="300" y="190" width="110" height="35" rx="4" fill="rgba(6,78,59,0.5)" stroke="#34d399" stroke-width="1.5" filter="url(#s)" class=""/><text x="355" y="202" fill="#f8fafc" font-size="12" font-weight="600" text-anchor="middle">Relay HIGH</text><line x1="380" y1="74" x2="380" y2="75" stroke="#64748b" stroke-width="1.5" marker-end="url(#ar)" /><text x="200" y="212" fill="#64748b" font-size="9" text-anchor="end">open_*</text><rect x="300" y="240" width="110" height="35" rx="4" fill="rgba(6,78,59,0.5)" stroke="#34d399" stroke-width="1.5" filter="url(#s)" class=""/><text x="355" y="252" fill="#f8fafc" font-size="12" font-weight="600" text-anchor="middle">Calib routine</text><line x1="380" y1="74" x2="380" y2="75" stroke="#64748b" stroke-width="1.5" marker-end="url(#ar)" /><text x="200" y="262" fill="#64748b" font-size="9" text-anchor="end">calibrate</text></svg>