<svg xmlns="http://www.w3.org/2000/svg" viewBox="0 0 700 680" width="100%">
<defs>
  <pattern id="g" width="30" height="30" patternUnits="userSpaceOnUse">
    <path d="M30 0L0 0 0 30" fill="none" stroke="#1e293b" stroke-width="0.4"/>
  </pattern>
  <filter id="s"><feDropShadow dx="0" dy="2" stdDeviation="3" flood-opacity="0.3"/></filter>
  <marker id="ar" markerWidth="8" markerHeight="6" refX="8" refY="3" orient="auto">
    <path d="M0 0L8 3L0 6z" fill="#64748b"/>
  </marker>
  <marker id="ar-amber" markerWidth="8" markerHeight="6" refX="8" refY="3" orient="auto">
    <path d="M0 0L8 3L0 6z" fill="#fbbf24"/>
  </marker>
  <marker id="ar-green" markerWidth="8" markerHeight="6" refX="8" refY="3" orient="auto">
    <path d="M0 0L8 3L0 6z" fill="#34d399"/>
  </marker>
  <marker id="ar-violet" markerWidth="8" markerHeight="6" refX="8" refY="3" orient="auto">
    <path d="M0 0L8 3L0 6z" fill="#a78bfa"/>
  </marker>
</defs>
<rect width="700" height="680" fill='#0f172a'/>
<rect width="700" height="680" fill="url(#g)"/>
<polygon points="270,30 410,30 390,70 250,70" fill="rgba(30,41,59,0.5)" stroke="#06b6d4" stroke-width="1.5" filter="url(#s)"/><text x="330" y="54" fill="#f8fafc" font-size="11" font-weight="600" text-anchor="middle">Feature Vector (9 feat.)</text><line x1="330" y1="70" x2="330" y2="95" stroke="#64748b" stroke-width="1.5" marker-end="url(#ar)" /><rect x="250" y="100" width="160" height="45" rx="4" fill="rgba(76,29,149,0.4)" stroke="#a78bfa" stroke-width="1.5" filter="url(#s)" class=""/><text x="330" y="117" fill="#f8fafc" font-size="12" font-weight="600" text-anchor="middle">XGBoost Predict</text><line x1="330" y1="145" x2="330" y2="170" stroke="#64748b" stroke-width="1.5" marker-end="url(#ar)" /><polygon points="330,185 400,210 330,235 260,210" fill="rgba(30,41,59,0.5)" stroke="#f59e0b" stroke-width="1.5" filter="url(#s)"/><text x="330" y="205" fill="#f8fafc" font-size="11" font-weight="600" text-anchor="middle">argmax class</text><line x1="400" y1="210" x2="440" y2="210" stroke="#64748b" stroke-width="1.5" marker-end="url(#ar)" stroke-dasharray="normal"/><rect x="440" y="190" width="120" height="40" rx="4" fill="rgba(6,78,59,0.5)" stroke="#34d399" stroke-width="1.5" filter="url(#s)" class=""/><text x="500" y="205" fill="#f8fafc" font-size="12" font-weight="600" text-anchor="middle">✅ Normal Use</text><line x1="330" y1="235" x2="330" y2="265" stroke="#64748b" stroke-width="1.5" marker-end="url(#ar)" stroke-dasharray="minor"/><rect x="250" y="265" width="160" height="40" rx="4" fill="rgba(251,191,36,0.2)" stroke="#f59e0b" stroke-width="1.5" filter="url(#s)" class=""/><text x="330" y="280" fill="#f8fafc" font-size="12" font-weight="600" text-anchor="middle">⚠️ Minor Leak</text><line x1="330" y1="305" x2="330" y2="335" stroke="#64748b" stroke-width="1.5" marker-end="url(#ar)" stroke-dasharray="major"/><rect x="250" y="335" width="160" height="40" rx="4" fill="rgba(136,19,55,0.4)" stroke="#fb7185" stroke-width="1.5" filter="url(#s)" class=""/><text x="330" y="350" fill="#f8fafc" font-size="12" font-weight="600" text-anchor="middle">🚨 Major Leak</text><line x1="330" y1="375" x2="330" y2="410" stroke="#64748b" stroke-width="1.5" marker-end="url(#ar)" stroke-dasharray="low conf"/><polygon points="330,425 400,450 330,475 260,450" fill="rgba(30,41,59,0.5)" stroke="#f59e0b" stroke-width="1.5" filter="url(#s)"/><text x="330" y="445" fill="#f8fafc" font-size="11" font-weight="600" text-anchor="middle">Anomaly?</text><rect x="230" y="500" width="200" height="40" rx="4" fill="rgba(76,29,149,0.4)" stroke="#a78bfa" stroke-width="1.5" filter="url(#s)" class=""/><text x="330" y="515" fill="#f8fafc" font-size="12" font-weight="600" text-anchor="middle">Isolation Forest Score</text><line x1="400" y1="450" x2="460" y2="450" stroke="#64748b" stroke-width="1.5" marker-end="url(#ar)" stroke-dasharray="Yes"/><rect x="460" y="430" width="120" height="40" rx="4" fill="rgba(136,19,55,0.4)" stroke="#fb7185" stroke-width="1.5" filter="url(#s)" class=""/><text x="520" y="445" fill="#f8fafc" font-size="12" font-weight="600" text-anchor="middle">⚠️ Anomaly!</text><line x1="620" y1="450" x2="640" y2="450" stroke="#64748b" stroke-width="1.5" marker-end="url(#ar)" /><rect x="250" y="560" width="160" height="40" rx="4" fill="rgba(251,191,36,0.2)" stroke="#f59e0b" stroke-width="1.5" filter="url(#s)" class=""/><text x="330" y="575" fill="#f8fafc" font-size="12" font-weight="600" text-anchor="middle">≥ 3 consecutive?</text><line x1="330" y1="540" x2="330" y2="558" stroke="#64748b" stroke-width="1.5" marker-end="url(#ar)" /><line x1="410" y1="580" x2="460" y2="580" stroke="#64748b" stroke-width="1.5" marker-end="url(#ar)" stroke-dasharray="Yes"/><rect x="460" y="560" width="140" height="40" rx="4" fill="rgba(136,19,55,0.4)" stroke="#fb7185" stroke-width="1.5" filter="url(#s)" class=""/><text x="530" y="575" fill="#f8fafc" font-size="12" font-weight="600" text-anchor="middle">CONFIRMED LEAK</text><line x1="530" y1="600" x2="530" y2="630" stroke="#64748b" stroke-width="1.5" marker-end="url(#ar)" /><rect x="460" y="630" width="140" height="40" rx="4" fill="rgba(120,53,15,0.4)" stroke="#fbbf24" stroke-width="1.5" filter="url(#s)" class=""/><text x="530" y="645" fill="#f8fafc" font-size="12" font-weight="600" text-anchor="middle">Write /alerts/</text></svg>