<svg xmlns="http://www.w3.org/2000/svg" viewBox="0 0 600 320" width="100%">
<defs>
  <pattern id="g" width="30" height="30" patternUnits="userSpaceOnUse">
    <path d="M30 0L0 0 0 30" fill="none" stroke="#1e293b" stroke-width="0.4"/>
  </pattern>
  <filter id="s"><feDropShadow dx="0" dy="2" stdDeviation="3" flood-opacity="0.3"/></filter>
  <marker id="ar" markerWidth="8" markerHeight="6" refX="8" refY="3" orient="auto">
    <path d="M0 0L8 3L0 6z" fill="#64748b"/>
  </marker>
  <marker id="ar-amber" markerWidth="8" markerHeight="6" refX="8" refY="3" orient="auto">
    <path d="M0 0L8 3L0 6z" fill="#fbbf24"/>
  </marker>
  <marker id="ar-green" markerWidth="8" markerHeight="6" refX="8" refY="3" orient="auto">
    <path d="M0 0L8 3L0 6z" fill="#34d399"/>
  </marker>
  <marker id="ar-violet" markerWidth="8" markerHeight="6" refX="8" refY="3" orient="auto">
    <path d="M0 0L8 3L0 6z" fill="#a78bfa"/>
  </marker>
</defs>
<rect width="600" height="320" fill='#0f172a'/>
<rect width="600" height="320" fill="url(#g)"/>
<rect x="30" y="30" width="130" height="40" rx="4" fill="rgba(76,29,149,0.4)" stroke="#a78bfa" stroke-width="1.5" filter="url(#s)" class=""/><text x="95" y="45" fill="#f8fafc" font-size="12" font-weight="600" text-anchor="middle">Raw Firebase Data</text><line x1="160" y1="50" x2="190" y2="50" stroke="#64748b" stroke-width="1.5" marker-end="url(#ar-violet)" /><polygon points="215,30 325,30 305,70 195,70" fill="rgba(30,41,59,0.5)" stroke="#06b6d4" stroke-width="1.5" filter="url(#s)"/><text x="260" y="54" fill="#f8fafc" font-size="11" font-weight="600" text-anchor="middle">Parse JSON</text><line x1="325" y1="50" x2="355" y2="50" stroke="#64748b" stroke-width="1.5" marker-end="url(#ar-violet)" /><text x="50" y="105" fill="#94a3b8" font-size="9">• flow_rate (L/min)</text><text x="50" y="129" fill="#94a3b8" font-size="9">• duration_seconds</text><text x="50" y="153" fill="#94a3b8" font-size="9">• hour_of_day</text><text x="50" y="177" fill="#94a3b8" font-size="9">• day_of_week</text><text x="50" y="201" fill="#94a3b8" font-size="9">• fixture_id (enc)</text><text x="50" y="225" fill="#94a3b8" font-size="9">• inlet:fixture ratio</text><text x="50" y="249" fill="#94a3b8" font-size="9">• rate_variance 10s</text><text x="50" y="273" fill="#94a3b8" font-size="9">• is_night_time</text><text x="50" y="297" fill="#94a3b8" font-size="9">• rolling_avg 1min</text><rect x="300" y="100" width="140" height="50" rx="4" fill="rgba(76,29,149,0.4)" stroke="#a78bfa" stroke-width="1.5" filter="url(#s)" class=""/><text x="370" y="120" fill="#f8fafc" font-size="12" font-weight="600" text-anchor="middle">Feature Vector</text><text x="370" y="136" fill="#94a3b8" font-size="9" text-anchor="middle">9-12 features</text><line x1="380" y1="150" x2="380" y2="175" stroke="#64748b" stroke-width="1.5" marker-end="url(#ar-violet)" /><rect x="300" y="175" width="140" height="40" rx="4" fill="rgba(136,19,55,0.4)" stroke="#fb7185" stroke-width="1.5" filter="url(#s)" class=""/><text x="370" y="190" fill="#f8fafc" font-size="12" font-weight="600" text-anchor="middle">Scale / Normalize</text><line x1="380" y1="215" x2="380" y2="240" stroke="#64748b" stroke-width="1.5" marker-end="url(#ar)" /><rect x="300" y="240" width="140" height="40" rx="4" fill="rgba(76,29,149,0.4)" stroke="#a78bfa" stroke-width="1.5" filter="url(#s)" class=""/><text x="370" y="255" fill="#f8fafc" font-size="12" font-weight="600" text-anchor="middle">XGBoost + IsoForest</text></svg>