<svg xmlns="http://www.w3.org/2000/svg" viewBox="0 0 800 500" width="100%">
<defs>
  <pattern id="g" width="30" height="30" patternUnits="userSpaceOnUse">
    <path d="M30 0L0 0 0 30" fill="none" stroke="#1e293b" stroke-width="0.4"/>
  </pattern>
  <filter id="s"><feDropShadow dx="0" dy="2" stdDeviation="3" flood-opacity="0.3"/></filter>
  <marker id="ar" markerWidth="8" markerHeight="6" refX="8" refY="3" orient="auto">
    <path d="M0 0L8 3L0 6z" fill="#64748b"/>
  </marker>
  <marker id="ar-amber" markerWidth="8" markerHeight="6" refX="8" refY="3" orient="auto">
    <path d="M0 0L8 3L0 6z" fill="#fbbf24"/>
  </marker>
  <marker id="ar-green" markerWidth="8" markerHeight="6" refX="8" refY="3" orient="auto">
    <path d="M0 0L8 3L0 6z" fill="#34d399"/>
  </marker>
  <marker id="ar-violet" markerWidth="8" markerHeight="6" refX="8" refY="3" orient="auto">
    <path d="M0 0L8 3L0 6z" fill="#a78bfa"/>
  </marker>
</defs>
<rect width="800" height="500" fill='#0f172a'/>
<rect width="800" height="500" fill="url(#g)"/>
<rect x="30" y="60" width="120" height="60" rx="4" fill="rgba(8,51,68,0.5)" stroke="#22d3ee" stroke-width="1.5" filter="url(#s)" class=""/><text x="90" y="85" fill="#f8fafc" font-size="12" font-weight="600" text-anchor="middle">🌊
Water Flow</text><line x1="150" y1="90" x2="178" y2="90" stroke="#64748b" stroke-width="1.5" marker-end="url(#ar)" /><rect x="170" y="60" width="120" height="60" rx="4" fill="rgba(8,51,68,0.5)" stroke="#22d3ee" stroke-width="1.5" filter="url(#s)" class=""/><text x="230" y="85" fill="#f8fafc" font-size="12" font-weight="600" text-anchor="middle">🔌 YF-S201
Flow Sensor</text><line x1="290" y1="90" x2="318" y2="90" stroke="#64748b" stroke-width="1.5" marker-end="url(#ar)" /><rect x="310" y="60" width="120" height="60" rx="4" fill="rgba(6,78,59,0.5)" stroke="#34d399" stroke-width="1.5" filter="url(#s)" class=""/><text x="370" y="85" fill="#f8fafc" font-size="12" font-weight="600" text-anchor="middle">⚡ Pulse
Interrupt</text><line x1="430" y1="90" x2="458" y2="90" stroke="#64748b" stroke-width="1.5" marker-end="url(#ar)" /><rect x="450" y="60" width="120" height="60" rx="4" fill="rgba(6,78,59,0.5)" stroke="#34d399" stroke-width="1.5" filter="url(#s)" class=""/><text x="510" y="85" fill="#f8fafc" font-size="12" font-weight="600" text-anchor="middle">📊 Feature
Extraction</text><line x1="570" y1="90" x2="598" y2="90" stroke="#64748b" stroke-width="1.5" marker-end="url(#ar)" /><rect x="590" y="60" width="120" height="60" rx="4" fill="rgba(6,78,59,0.5)" stroke="#34d399" stroke-width="1.5" filter="url(#s)" class=""/><text x="650" y="85" fill="#f8fafc" font-size="12" font-weight="600" text-anchor="middle">🔥 Firebase
ESP-Client</text><rect x="30" y="180" width="120" height="60" rx="4" fill="rgba(120,53,15,0.4)" stroke="#fbbf24" stroke-width="1.5" filter="url(#s)" class=""/><text x="90" y="205" fill="#f8fafc" font-size="12" font-weight="600" text-anchor="middle">☁️ Firebase
Realtime DB</text><line x1="150" y1="210" x2="178" y2="210" stroke="#64748b" stroke-width="1.5" marker-end="url(#ar-violet)" /><rect x="170" y="180" width="120" height="60" rx="4" fill="rgba(76,29,149,0.4)" stroke="#a78bfa" stroke-width="1.5" filter="url(#s)" class=""/><text x="230" y="205" fill="#f8fafc" font-size="12" font-weight="600" text-anchor="middle">🐍 Pyrebase4
Listener</text><line x1="290" y1="210" x2="318" y2="210" stroke="#64748b" stroke-width="1.5" marker-end="url(#ar-violet)" /><rect x="310" y="180" width="120" height="60" rx="4" fill="rgba(136,19,55,0.4)" stroke="#fb7185" stroke-width="1.5" filter="url(#s)" class=""/><text x="370" y="205" fill="#f8fafc" font-size="12" font-weight="600" text-anchor="middle">🧠 XGBoost
Inference</text><line x1="430" y1="210" x2="458" y2="210" stroke="#64748b" stroke-width="1.5" marker-end="url(#ar-violet)" /><rect x="450" y="180" width="120" height="60" rx="4" fill="rgba(136,19,55,0.4)" stroke="#fb7185" stroke-width="1.5" filter="url(#s)" class=""/><text x="510" y="205" fill="#f8fafc" font-size="12" font-weight="600" text-anchor="middle">🔍 Isolation
Forest</text><line x1="570" y1="210" x2="598" y2="210" stroke="#64748b" stroke-width="1.5" marker-end="url(#ar-violet)" /><rect x="590" y="180" width="120" height="60" rx="4" fill="rgba(76,29,149,0.4)" stroke="#a78bfa" stroke-width="1.5" filter="url(#s)" class=""/><text x="650" y="205" fill="#f8fafc" font-size="12" font-weight="600" text-anchor="middle">⚠️ Alert
Engine</text><line x1="710" y1="90" x2="710" y2="178" stroke="#64748b" stroke-width="1.5" marker-end="url(#ar-amber)" /><line x1="650" y1="120" x2="650" y2="150" stroke="#64748b" stroke-width="1.5" marker-end="url(#ar)" /><rect x="30" y="320" width="120" height="60" rx="4" fill="rgba(8,51,68,0.5)" stroke="#22d3ee" stroke-width="1.5" filter="url(#s)" class=""/><text x="90" y="345" fill="#f8fafc" font-size="12" font-weight="600" text-anchor="middle">🌐 Web
Dashboard</text><line x1="150" y1="350" x2="178" y2="350" stroke="#64748b" stroke-width="1.5" marker-end="url(#ar)" /><rect x="170" y="320" width="120" height="60" rx="4" fill="rgba(136,19,55,0.4)" stroke="#fb7185" stroke-width="1.5" filter="url(#s)" class=""/><text x="230" y="345" fill="#f8fafc" font-size="12" font-weight="600" text-anchor="middle">📱 Telegram
Notification</text><line x1="290" y1="350" x2="318" y2="350" stroke="#64748b" stroke-width="1.5" marker-end="url(#ar)" /><rect x="310" y="320" width="120" height="60" rx="4" fill="rgba(6,78,59,0.5)" stroke="#34d399" stroke-width="1.5" filter="url(#s)" class=""/><text x="370" y="345" fill="#f8fafc" font-size="12" font-weight="600" text-anchor="middle">🔧 Valve
Controller</text><line x1="90" y1="240" x2="90" y2="318" stroke="#64748b" stroke-width="1.5" marker-end="url(#ar)" /><line x1="230" y1="240" x2="230" y2="318" stroke="#64748b" stroke-width="1.5" marker-end="url(#ar)" /><line x1="370" y1="240" x2="370" y2="318" stroke="#64748b" stroke-width="1.5" marker-end="url(#ar)" /><rect x="590" y="380" width="130" height="40" rx="4" fill="rgba(120,53,15,0.4)" stroke="#fbbf24" stroke-width="1.5" filter="url(#s)" class=""/><text x="655" y="395" fill="#f8fafc" font-size="12" font-weight="600" text-anchor="middle">📡 ESP32 Cmd Stream</text><line x1="370" y1="380" x2="655" y2="380" stroke="#64748b" stroke-width="1.5" marker-end="url(#ar-amber)" /><line x1="655" y1="380" x2="655" y2="240" stroke="#64748b" stroke-width="1.5" marker-end="url(#ar-amber)" /><text x="655" y="304" fill="#64748b" font-size="8" text-anchor="middle">write /commands/</text><line x1="655" y1="240" x2="650" y2="210" stroke="#64748b" stroke-width="1.5" marker-end="url(#ar-amber)" /><line x1="650" y1="120" x2="650" y2="150" stroke="#64748b" stroke-width="1.5" marker-end="url(#ar)" /><line x1="650" y1="240" x2="650" y2="260" stroke="#64748b" stroke-width="1.5" marker-end="url(#ar)" /><line x1="650" y1="260" x2="230" y2="260" stroke="#64748b" stroke-width="1.5" marker-end="url(#ar)" /><line x1="230" y1="260" x2="230" y2="318" stroke="#64748b" stroke-width="1.5" marker-end="url(#ar)" /></svg>