<svg xmlns="http://www.w3.org/2000/svg" viewBox="0 0 1000 780" width="100%">
<defs>
  <pattern id="g" width="30" height="30" patternUnits="userSpaceOnUse">
    <path d="M30 0L0 0 0 30" fill="none" stroke="#1e293b" stroke-width="0.4"/>
  </pattern>
  <filter id="s"><feDropShadow dx="0" dy="2" stdDeviation="3" flood-opacity="0.3"/></filter>
  <marker id="ar" markerWidth="8" markerHeight="6" refX="8" refY="3" orient="auto">
    <path d="M0 0L8 3L0 6z" fill="#64748b"/>
  </marker>
  <marker id="ar-amber" markerWidth="8" markerHeight="6" refX="8" refY="3" orient="auto">
    <path d="M0 0L8 3L0 6z" fill="#fbbf24"/>
  </marker>
  <marker id="ar-green" markerWidth="8" markerHeight="6" refX="8" refY="3" orient="auto">
    <path d="M0 0L8 3L0 6z" fill="#34d399"/>
  </marker>
  <marker id="ar-violet" markerWidth="8" markerHeight="6" refX="8" refY="3" orient="auto">
    <path d="M0 0L8 3L0 6z" fill="#a78bfa"/>
  </marker>
</defs>
<rect width="1000" height="780" fill='#0f172a'/>
<rect width="1000" height="780" fill="url(#g)"/>
<rect x="20" y="15" width="960" height="115" rx="10" fill="rgba(15,23,42,0.4)" stroke="#22d3ee" stroke-width="1" stroke-dasharray="5,3"/><text x="34" y="35" fill="#22d3ee" font-size="11" font-weight="700">🔧 PLUMBING LAYER</text><rect x="20" y="145" width="960" height="130" rx="10" fill="rgba(15,23,42,0.4)" stroke="#34d399" stroke-width="1" stroke-dasharray="5,3"/><text x="34" y="165" fill="#34d399" font-size="11" font-weight="700">⚡ ESP32 EDGE LAYER</text><rect x="20" y="290" width="960" height="150" rx="10" fill="rgba(15,23,42,0.4)" stroke="#fbbf24" stroke-width="1" stroke-dasharray="5,3"/><text x="34" y="310" fill="#fbbf24" font-size="11" font-weight="700">☁️ FIREBASE REALTIME DB</text><rect x="20" y="455" width="960" height="145" rx="10" fill="rgba(15,23,42,0.4)" stroke="#a78bfa" stroke-width="1" stroke-dasharray="5,3"/><text x="34" y="475" fill="#a78bfa" font-size="11" font-weight="700">🐍 PYTHONANYWHERE BACKEND</text><rect x="20" y="615" width="960" height="80" rx="10" fill="rgba(15,23,42,0.4)" stroke="#22d3ee" stroke-width="1" stroke-dasharray="5,3"/><text x="34" y="635" fill="#22d3ee" font-size="11" font-weight="700">👤 USER LAYER</text><rect x="20" y="710" width="960" height="55" rx="10" fill="rgba(15,23,42,0.4)" stroke="#475569" stroke-width="1" stroke-dasharray="5,3"/><text x="34" y="730" fill="#475569" font-size="11" font-weight="700">🎨 COLOR LEGEND</text><rect x="40" y="40" width="90" height="40" rx="4" fill="rgba(8,51,68,0.5)" stroke="#22d3ee" stroke-width="1.5" filter="url(#s)" class=""/><text x="85" y="55" fill="#f8fafc" font-size="12" font-weight="600" text-anchor="middle">Main Water</text><rect x="150" y="40" width="110" height="40" rx="4" fill="rgba(8,51,68,0.5)" stroke="#22d3ee" stroke-width="1.5" filter="url(#s)" class=""/><text x="205" y="55" fill="#f8fafc" font-size="12" font-weight="600" text-anchor="middle">Inlet Sensor</text><text x="205" y="71" fill="#94a3b8" font-size="9" text-anchor="middle">YF-S201 · GPIO 34</text><rect x="280" y="40" width="70" height="40" rx="8" fill="rgba(14,116,144,0.2)" stroke="#22d3ee" stroke-width="1.5" filter="url(#s)" class=""/><text x="315" y="55" fill="#f8fafc" font-size="12" font-weight="600" text-anchor="middle">Check Vlv</text><rect x="370" y="40" width="70" height="40" rx="4" fill="rgba(8,51,68,0.5)" stroke="#22d3ee" stroke-width="1.5" filter="url(#s)" class=""/><text x="405" y="55" fill="#f8fafc" font-size="12" font-weight="600" text-anchor="middle">Junction</text><rect x="460" y="40" width="85" height="40" rx="4" fill="rgba(8,51,68,0.5)" stroke="#22d3ee" stroke-width="1.5" filter="url(#s)" class=""/><text x="502" y="55" fill="#f8fafc" font-size="12" font-weight="600" text-anchor="middle">Fixture 1</text><text x="502" y="71" fill="#94a3b8" font-size="9" text-anchor="middle">GPIO 35</text><rect x="560" y="40" width="85" height="40" rx="4" fill="rgba(8,51,68,0.5)" stroke="#22d3ee" stroke-width="1.5" filter="url(#s)" class=""/><text x="602" y="55" fill="#f8fafc" font-size="12" font-weight="600" text-anchor="middle">Fixture 2</text><text x="602" y="71" fill="#94a3b8" font-size="9" text-anchor="middle">GPIO 32</text><rect x="660" y="40" width="85" height="40" rx="4" fill="rgba(8,51,68,0.5)" stroke="#22d3ee" stroke-width="1.5" filter="url(#s)" class=""/><text x="702" y="55" fill="#f8fafc" font-size="12" font-weight="600" text-anchor="middle">Fixture 3</text><text x="702" y="71" fill="#94a3b8" font-size="9" text-anchor="middle">GPIO 33</text><rect x="760" y="40" width="85" height="40" rx="4" fill="rgba(8,51,68,0.5)" stroke="#22d3ee" stroke-width="1.5" filter="url(#s)" class=""/><text x="802" y="55" fill="#f8fafc" font-size="12" font-weight="600" text-anchor="middle">Fixture 4</text><text x="802" y="71" fill="#94a3b8" font-size="9" text-anchor="middle">GPIO 25</text><rect x="860" y="40" width="100" height="40" rx="4" fill="rgba(136,19,55,0.4)" stroke="#fb7185" stroke-width="1.5" filter="url(#s)" class=""/><text x="910" y="55" fill="#f8fafc" font-size="12" font-weight="600" text-anchor="middle">Solenoid</text><text x="910" y="71" fill="#94a3b8" font-size="9" text-anchor="middle">4-Ch · 12V NC</text><line x1="130" y1="60" x2="148" y2="60" stroke="#64748b" stroke-width="1.5" marker-end="url(#ar)" /><line x1="260" y1="60" x2="278" y2="60" stroke="#64748b" stroke-width="1.5" marker-end="url(#ar)" /><line x1="350" y1="60" x2="368" y2="60" stroke="#64748b" stroke-width="1.5" marker-end="url(#ar)" /><line x1="440" y1="60" x2="458" y2="60" stroke="#64748b" stroke-width="1.5" marker-end="url(#ar)" /><line x1="502" y1="80" x2="502" y2="65" stroke="#64748b" stroke-width="1.5" marker-end="url(#ar)" /><line x1="602" y1="80" x2="602" y2="65" stroke="#64748b" stroke-width="1.5" marker-end="url(#ar)" /><line x1="702" y1="80" x2="702" y2="65" stroke="#64748b" stroke-width="1.5" marker-end="url(#ar)" /><line x1="802" y1="80" x2="802" y2="65" stroke="#64748b" stroke-width="1.5" marker-end="url(#ar)" /><rect x="40" y="170" width="130" height="55" rx="4" fill="rgba(6,78,59,0.5)" stroke="#34d399" stroke-width="1.5" filter="url(#s)" class=""/><text x="105" y="192" fill="#f8fafc" font-size="12" font-weight="600" text-anchor="middle">ESP32 Dev Board</text><text x="105" y="208" fill="#94a3b8" font-size="9" text-anchor="middle">Xtensa LX6 · WiFi/BLE</text><rect x="190" y="170" width="110" height="55" rx="4" fill="rgba(6,78,59,0.5)" stroke="#34d399" stroke-width="1.5" filter="url(#s)" class=""/><text x="245" y="192" fill="#f8fafc" font-size="12" font-weight="600" text-anchor="middle">Pulse Counters</text><text x="245" y="208" fill="#94a3b8" font-size="9" text-anchor="middle">5× ISR + 5ms debounce</text><rect x="320" y="170" width="110" height="55" rx="4" fill="rgba(6,78,59,0.5)" stroke="#34d399" stroke-width="1.5" filter="url(#s)" class=""/><text x="375" y="192" fill="#f8fafc" font-size="12" font-weight="600" text-anchor="middle">Feature Extract</text><text x="375" y="208" fill="#94a3b8" font-size="9" text-anchor="middle">flow_rate, volume</text><rect x="450" y="170" width="120" height="55" rx="4" fill="rgba(6,78,59,0.5)" stroke="#34d399" stroke-width="1.5" filter="url(#s)" class=""/><text x="510" y="192" fill="#f8fafc" font-size="12" font-weight="600" text-anchor="middle">Firebase Client</text><text x="510" y="208" fill="#94a3b8" font-size="9" text-anchor="middle">Firebase-ESP-Client</text><rect x="590" y="170" width="110" height="55" rx="4" fill="rgba(239,68,68,0.15)" stroke="#f87171" stroke-width="1.5" filter="url(#s)" class=""/><text x="645" y="192" fill="#f8fafc" font-size="12" font-weight="600" text-anchor="middle">Local Leak Rules</text><text x="645" y="208" fill="#94a3b8" font-size="9" text-anchor="middle">Fallback logic</text><rect x="720" y="170" width="240" height="55" rx="4" fill="rgba(6,78,59,0.5)" stroke="#34d399" stroke-width="1.5" filter="url(#s)" class=""/><text x="840" y="192" fill="#f8fafc" font-size="12" font-weight="600" text-anchor="middle">Peripherals</text><text x="840" y="208" fill="#94a3b8" font-size="9" text-anchor="middle">OLED 128×64 · SD Card · Buzzer · RGB LED</text><line x1="170" y1="197" x2="188" y2="197" stroke="#64748b" stroke-width="1.5" marker-end="url(#ar)" /><line x1="300" y1="197" x2="318" y2="197" stroke="#64748b" stroke-width="1.5" marker-end="url(#ar)" /><line x1="430" y1="197" x2="448" y2="197" stroke="#64748b" stroke-width="1.5" marker-end="url(#ar)" /><line x1="570" y1="197" x2="588" y2="197" stroke="#64748b" stroke-width="1.5" marker-end="url(#ar)" /><line x1="700" y1="197" x2="718" y2="197" stroke="#64748b" stroke-width="1.5" marker-end="url(#ar)" /><line x1="85" y1="80" x2="85" y2="168" stroke="#64748b" stroke-width="1.5" marker-end="url(#ar-green)" /><text x="85" y="118" fill="#64748b" font-size="8" text-anchor="middle">Pulse IN</text><line x1="502" y1="80" x2="502" y2="168" stroke="#64748b" stroke-width="1.5" marker-end="url(#ar-green)" /><text x="502" y="118" fill="#64748b" font-size="8" text-anchor="middle">Pulse IN</text><line x1="602" y1="80" x2="602" y2="168" stroke="#64748b" stroke-width="1.5" marker-end="url(#ar-green)" /><text x="602" y="118" fill="#64748b" font-size="8" text-anchor="middle">Pulse IN</text><line x1="702" y1="80" x2="702" y2="168" stroke="#64748b" stroke-width="1.5" marker-end="url(#ar-green)" /><text x="702" y="118" fill="#64748b" font-size="8" text-anchor="middle">Pulse IN</text><line x1="802" y1="80" x2="802" y2="168" stroke="#64748b" stroke-width="1.5" marker-end="url(#ar-green)" /><text x="802" y="118" fill="#64748b" font-size="8" text-anchor="middle">Pulse IN</text><line x1="645" y1="170" x2="910" y2="80" stroke="#64748b" stroke-width="1.5" marker-end="url(#ar)" /><text x="777" y="119" fill="#64748b" font-size="8" text-anchor="middle">Relay GPIO</text><rect x="40" y="315" width="150" height="60" rx="4" fill="rgba(120,53,15,0.4)" stroke="#fbbf24" stroke-width="1.5" filter="url(#s)" class=""/><text x="115" y="340" fill="#f8fafc" font-size="12" font-weight="600" text-anchor="middle">🔥 Firebase</text><text x="115" y="356" fill="#94a3b8" font-size="9" text-anchor="middle">Realtime Database</text><rect x="210" y="315" width="120" height="60" rx="4" fill="rgba(120,53,15,0.4)" stroke="#fbbf24" stroke-width="1.5" filter="url(#s)" class=""/><text x="270" y="340" fill="#f8fafc" font-size="12" font-weight="600" text-anchor="middle">/readings/</text><text x="270" y="356" fill="#94a3b8" font-size="9" text-anchor="middle">{device_id}/{ts}</text><rect x="350" y="315" width="120" height="60" rx="4" fill="rgba(120,53,15,0.4)" stroke="#fbbf24" stroke-width="1.5" filter="url(#s)" class=""/><text x="410" y="340" fill="#f8fafc" font-size="12" font-weight="600" text-anchor="middle">/alerts/</text><text x="410" y="356" fill="#94a3b8" font-size="9" text-anchor="middle">{alert_id}</text><rect x="490" y="315" width="120" height="60" rx="4" fill="rgba(120,53,15,0.4)" stroke="#fbbf24" stroke-width="1.5" filter="url(#s)" class=""/><text x="550" y="340" fill="#f8fafc" font-size="12" font-weight="600" text-anchor="middle">/commands/</text><text x="550" y="356" fill="#94a3b8" font-size="9" text-anchor="middle">{device_id}</text><rect x="630" y="315" width="120" height="60" rx="4" fill="rgba(120,53,15,0.4)" stroke="#fbbf24" stroke-width="1.5" filter="url(#s)" class=""/><text x="690" y="340" fill="#f8fafc" font-size="12" font-weight="600" text-anchor="middle">/models/</text><text x="690" y="356" fill="#94a3b8" font-size="9" text-anchor="middle">{version}</text><line x1="190" y1="345" x2="208" y2="345" stroke="#64748b" stroke-width="1.5" marker-end="url(#ar-amber)" /><line x1="330" y1="345" x2="348" y2="345" stroke="#64748b" stroke-width="1.5" marker-end="url(#ar-amber)" /><line x1="470" y1="345" x2="488" y2="345" stroke="#64748b" stroke-width="1.5" marker-end="url(#ar-amber)" /><line x1="610" y1="345" x2="628" y2="345" stroke="#64748b" stroke-width="1.5" marker-end="url(#ar-amber)" /><line x1="510" y1="225" x2="510" y2="260" stroke="#64748b" stroke-width="1.5" marker-end="url(#ar-amber)" /><line x1="510" y1="260" x2="115" y2="260" stroke="#64748b" stroke-width="1.5" marker-end="url(#ar-amber)" /><line x1="115" y1="260" x2="115" y2="313" stroke="#64748b" stroke-width="1.5" marker-end="url(#ar-amber)" /><text x="115" y="280" fill="#64748b" font-size="8" text-anchor="middle">HTTPS pushJSON</text><rect x="40" y="480" width="120" height="55" rx="4" fill="rgba(76,29,149,0.4)" stroke="#a78bfa" stroke-width="1.5" filter="url(#s)" class=""/><text x="100" y="502" fill="#f8fafc" font-size="12" font-weight="600" text-anchor="middle">Pyrebase4</text><text x="100" y="518" fill="#94a3b8" font-size="9" text-anchor="middle">Stream + REST</text><rect x="180" y="480" width="120" height="55" rx="4" fill="rgba(76,29,149,0.4)" stroke="#a78bfa" stroke-width="1.5" filter="url(#s)" class=""/><text x="240" y="502" fill="#f8fafc" font-size="12" font-weight="600" text-anchor="middle">XGBoost</text><text x="240" y="518" fill="#94a3b8" font-size="9" text-anchor="middle">Leak Classifier</text><rect x="320" y="480" width="120" height="55" rx="4" fill="rgba(76,29,149,0.4)" stroke="#a78bfa" stroke-width="1.5" filter="url(#s)" class=""/><text x="380" y="502" fill="#f8fafc" font-size="12" font-weight="600" text-anchor="middle">Isolation Forest</text><text x="380" y="518" fill="#94a3b8" font-size="9" text-anchor="middle">Anomaly Detection</text><rect x="460" y="480" width="110" height="55" rx="4" fill="rgba(136,19,55,0.4)" stroke="#fb7185" stroke-width="1.5" filter="url(#s)" class=""/><text x="515" y="502" fill="#f8fafc" font-size="12" font-weight="600" text-anchor="middle">Alert Engine</text><text x="515" y="518" fill="#94a3b8" font-size="9" text-anchor="middle">Telegram/Email</text><rect x="590" y="480" width="110" height="55" rx="4" fill="rgba(76,29,149,0.4)" stroke="#a78bfa" stroke-width="1.5" filter="url(#s)" class=""/><text x="645" y="502" fill="#f8fafc" font-size="12" font-weight="600" text-anchor="middle">Flask App</text><text x="645" y="518" fill="#94a3b8" font-size="9" text-anchor="middle">Dashboard + API</text><rect x="720" y="480" width="100" height="55" rx="4" fill="rgba(76,29,149,0.4)" stroke="#a78bfa" stroke-width="1.5" filter="url(#s)" class=""/><text x="770" y="502" fill="#f8fafc" font-size="12" font-weight="600" text-anchor="middle">Retrain</text><text x="770" y="518" fill="#94a3b8" font-size="9" text-anchor="middle">Daily Pipeline</text><line x1="160" y1="507" x2="178" y2="507" stroke="#64748b" stroke-width="1.5" marker-end="url(#ar-violet)" /><line x1="300" y1="507" x2="318" y2="507" stroke="#64748b" stroke-width="1.5" marker-end="url(#ar-violet)" /><line x1="440" y1="507" x2="458" y2="507" stroke="#64748b" stroke-width="1.5" marker-end="url(#ar-violet)" /><line x1="570" y1="507" x2="588" y2="507" stroke="#64748b" stroke-width="1.5" marker-end="url(#ar-violet)" /><line x1="700" y1="507" x2="718" y2="507" stroke="#64748b" stroke-width="1.5" marker-end="url(#ar-violet)" /><line x1="115" y1="375" x2="115" y2="410" stroke="#64748b" stroke-width="1.5" marker-end="url(#ar-violet)" /><line x1="115" y1="410" x2="100" y2="410" stroke="#64748b" stroke-width="1.5" marker-end="url(#ar-violet)" /><line x1="100" y1="410" x2="100" y2="478" stroke="#64748b" stroke-width="1.5" marker-end="url(#ar-violet)" /><text x="100" y="438" fill="#64748b" font-size="8" text-anchor="middle">SSE Stream</text><line x1="515" y1="535" x2="515" y2="410" stroke="#64748b" stroke-width="1.5" marker-end="url(#ar)" /><line x1="515" y1="410" x2="410" y2="410" stroke="#64748b" stroke-width="1.5" marker-end="url(#ar)" /><line x1="410" y1="410" x2="410" y2="375" stroke="#64748b" stroke-width="1.5" marker-end="url(#ar-amber)" /><text x="410" y="386" fill="#64748b" font-size="8" text-anchor="middle">Write /alerts/</text><rect x="40" y="640" width="160" height="40" rx="4" fill="rgba(8,51,68,0.5)" stroke="#22d3ee" stroke-width="1.5" filter="url(#s)" class=""/><text x="120" y="655" fill="#f8fafc" font-size="12" font-weight="600" text-anchor="middle">🌐 Web Dashboard</text><text x="120" y="671" fill="#94a3b8" font-size="9" text-anchor="middle">Chart.js · Real-time</text><rect x="230" y="640" width="150" height="40" rx="4" fill="rgba(8,51,68,0.5)" stroke="#22d3ee" stroke-width="1.5" filter="url(#s)" class=""/><text x="305" y="655" fill="#f8fafc" font-size="12" font-weight="600" text-anchor="middle">📱 Telegram Alerts</text><text x="305" y="671" fill="#94a3b8" font-size="9" text-anchor="middle">Bot API</text><rect x="410" y="640" width="150" height="40" rx="4" fill="rgba(8,51,68,0.5)" stroke="#22d3ee" stroke-width="1.5" filter="url(#s)" class=""/><text x="485" y="655" fill="#f8fafc" font-size="12" font-weight="600" text-anchor="middle">🔧 Remote Valve Ctrl</text><text x="485" y="671" fill="#94a3b8" font-size="9" text-anchor="middle">Per-fixture shutoff</text><line x1="645" y1="507" x2="645" y2="570" stroke="#64748b" stroke-width="1.5" marker-end="url(#ar)" /><line x1="645" y1="570" x2="120" y2="570" stroke="#64748b" stroke-width="1.5" marker-end="url(#ar)" /><line x1="120" y1="570" x2="120" y2="638" stroke="#64748b" stroke-width="1.5" marker-end="url(#ar)" /><text x="120" y="598" fill="#64748b" font-size="8" text-anchor="middle">HTTP/SSE</text><line x1="515" y1="535" x2="515" y2="570" stroke="#64748b" stroke-width="1.5" marker-end="url(#ar)" /><line x1="515" y1="570" x2="305" y2="570" stroke="#64748b" stroke-width="1.5" marker-end="url(#ar)" /><line x1="305" y1="570" x2="305" y2="638" stroke="#64748b" stroke-width="1.5" marker-end="url(#ar)" /><text x="305" y="598" fill="#64748b" font-size="8" text-anchor="middle">Bot API</text><line x1="485" y1="660" x2="485" y2="700" stroke="#64748b" stroke-width="1.5" marker-end="url(#ar)" /><line x1="485" y1="700" x2="550" y2="700" stroke="#64748b" stroke-width="1.5" marker-end="url(#ar)" /><line x1="550" y1="700" x2="550" y2="375" stroke="#64748b" stroke-width="1.5" marker-end="url(#ar-amber)" /><text x="550" y="531" fill="#64748b" font-size="8" text-anchor="middle">Write /commands/</text><rect x="30" y="730" width="14" height="10" rx="2" fill="rgba(8,51,68,0.5)" stroke="#22d3ee" stroke-width="1"/><text x="48" y="739" fill="#94a3b8" font-size="9">Plumbing / IoT</text><rect x="160" y="730" width="14" height="10" rx="2" fill="rgba(6,78,59,0.5)" stroke="#34d399" stroke-width="1"/><text x="178" y="739" fill="#94a3b8" font-size="9">ESP32 Firmware</text><rect x="300" y="730" width="14" height="10" rx="2" fill="rgba(120,53,15,0.4)" stroke="#fbbf24" stroke-width="1"/><text x="318" y="739" fill="#94a3b8" font-size="9">Firebase Cloud</text><rect x="440" y="730" width="14" height="10" rx="2" fill="rgba(76,29,149,0.4)" stroke="#a78bfa" stroke-width="1"/><text x="458" y="739" fill="#94a3b8" font-size="9">PythonAnywhere</text><rect x="580" y="730" width="14" height="10" rx="2" fill="rgba(136,19,55,0.4)" stroke="#fb7185" stroke-width="1"/><text x="598" y="739" fill="#94a3b8" font-size="9">ML / Alerts</text><rect x="700" y="730" width="14" height="10" rx="2" fill="rgba(8,51,68,0.5)" stroke="#22d3ee" stroke-width="1"/><text x="718" y="739" fill="#94a3b8" font-size="9">User Interface</text></svg>